<svg xmlns="http://www.w3.org/2000/svg" xmlns:xlink="http://www.w3.org/1999/xlink" width="40" zoomAndPan="magnify" viewBox="0 0 30 30.000001" height="40" preserveAspectRatio="xMidYMid meet" version="1.0"><defs><g/><clipPath id="35d901d220"><path d="M 0.484375 0 L 29.515625 0 L 29.515625 29.03125 L 0.484375 29.03125 Z M 0.484375 0 " clip-rule="nonzero"/></clipPath></defs><g clip-path="url(#35d901d220)"><path fill="#ffffff" d="M 0.484375 0 L 29.515625 0 L 29.515625 29.03125 L 0.484375 29.03125 Z M 0.484375 0 " fill-opacity="1" fill-rule="nonzero"/><path fill="#2c3e50" d="M 0.484375 0 L 29.515625 0 L 29.515625 29.03125 L 0.484375 29.03125 Z M 0.484375 0 " fill-opacity="1" fill-rule="nonzero"/></g><g fill="#ffffff" fill-opacity="1"><g transform="translate(5.848034, 22.479099)"><g><path d="M 7.703125 0.421875 C 6.578125 0.421875 5.554688 0.207031 4.640625 -0.21875 C 3.722656 -0.644531 2.992188 -1.265625 2.453125 -2.078125 C 1.921875 -2.890625 1.65625 -3.875 1.65625 -5.03125 C 1.65625 -6.039062 1.851562 -6.863281 2.25 -7.5 C 2.65625 -8.132812 3.191406 -8.628906 3.859375 -8.984375 C 4.523438 -9.347656 5.265625 -9.617188 6.078125 -9.796875 C 6.890625 -9.984375 7.707031 -10.128906 8.53125 -10.234375 C 9.601562 -10.367188 10.472656 -10.472656 11.140625 -10.546875 C 11.816406 -10.617188 12.3125 -10.742188 12.625 -10.921875 C 12.9375 -11.097656 13.09375 -11.40625 13.09375 -11.84375 L 13.09375 -11.9375 C 13.09375 -13.070312 12.78125 -13.953125 12.15625 -14.578125 C 11.539062 -15.210938 10.609375 -15.53125 9.359375 -15.53125 C 8.054688 -15.53125 7.035156 -15.242188 6.296875 -14.671875 C 5.566406 -14.109375 5.050781 -13.503906 4.75 -12.859375 L 2.171875 -13.78125 C 2.628906 -14.851562 3.242188 -15.691406 4.015625 -16.296875 C 4.785156 -16.898438 5.628906 -17.320312 6.546875 -17.5625 C 7.460938 -17.8125 8.367188 -17.9375 9.265625 -17.9375 C 9.835938 -17.9375 10.492188 -17.867188 11.234375 -17.734375 C 11.972656 -17.597656 12.6875 -17.320312 13.375 -16.90625 C 14.070312 -16.488281 14.648438 -15.859375 15.109375 -15.015625 C 15.578125 -14.179688 15.8125 -13.0625 15.8125 -11.65625 L 15.8125 0 L 13.09375 0 L 13.09375 -2.390625 L 12.953125 -2.390625 C 12.765625 -2.015625 12.457031 -1.601562 12.03125 -1.15625 C 11.601562 -0.71875 11.03125 -0.34375 10.3125 -0.03125 C 9.601562 0.269531 8.734375 0.421875 7.703125 0.421875 Z M 8.109375 -2.03125 C 9.191406 -2.03125 10.101562 -2.238281 10.84375 -2.65625 C 11.582031 -3.082031 12.140625 -3.628906 12.515625 -4.296875 C 12.898438 -4.960938 13.09375 -5.664062 13.09375 -6.40625 L 13.09375 -8.890625 C 12.976562 -8.753906 12.722656 -8.628906 12.328125 -8.515625 C 11.941406 -8.410156 11.5 -8.316406 11 -8.234375 C 10.5 -8.148438 10.007812 -8.078125 9.53125 -8.015625 C 9.0625 -7.960938 8.679688 -7.914062 8.390625 -7.875 C 7.679688 -7.789062 7.019531 -7.644531 6.40625 -7.4375 C 5.800781 -7.238281 5.3125 -6.9375 4.9375 -6.53125 C 4.5625 -6.125 4.375 -5.578125 4.375 -4.890625 C 4.375 -3.941406 4.722656 -3.226562 5.421875 -2.75 C 6.128906 -2.269531 7.023438 -2.03125 8.109375 -2.03125 Z M 8.109375 -2.03125 "/></g></g></g></svg>